<?xml version="1.0" standalone="no"?>
<!DOCTYPE svg PUBLIC "-//W3C//DTD SVG 20010904//EN"
 "http://www.w3.org/TR/2001/REC-SVG-20010904/DTD/svg10.dtd">
<svg version="1.0" xmlns="http://www.w3.org/2000/svg"
 width="585.000000pt" height="585.000000pt" viewBox="0 0 585.000000 585.000000"
 preserveAspectRatio="xMidYMid meet">
<metadata>
Created by potrace 1.11, written by Peter Selinger 2001-2013
</metadata>
<g transform="translate(0.000000,585.000000) scale(0.100000,-0.100000)"
fill="#000000" stroke="none">
<path d="M307 5801 l-189 -6 -33 -36 -33 -36 -6 -364 c-4 -200 -6 -1275 -4
-2389 l3 -2025 498 -3 c308 -1 497 1 497 7 0 6 103 11 254 13 298 4 273 -6
379 134 38 49 101 127 141 174 103 120 123 154 152 250 14 47 61 155 105 240
43 85 94 189 113 231 80 172 207 339 311 407 89 59 124 73 345 142 182 57 388
152 433 201 38 41 36 92 -8 199 -29 72 -32 87 -21 99 12 11 17 4 31 -45 9 -32
30 -87 45 -121 16 -34 31 -83 35 -109 3 -26 12 -62 20 -81 33 -79 25 -183 -14
-183 -9 0 1 -16 24 -40 61 -62 29 -45 -46 25 -14 13 -18 12 -36 -9 l-21 -24
24 -23 c13 -12 21 -26 18 -30 -3 -5 0 -9 5 -9 6 0 11 -5 11 -12 0 -6 -8 -3
-20 7 -11 10 -17 22 -14 26 3 5 -2 6 -10 3 -9 -3 -13 -11 -9 -18 4 -6 -1 -5
-10 3 -15 12 -17 11 -17 -7 0 -33 -11 -51 -26 -45 -8 3 -14 10 -14 17 -1 6 -9
29 -20 51 -13 27 -20 63 -20 110 -2 66 -2 68 -15 40 -7 -16 -11 -47 -8 -70 3
-22 5 -46 6 -52 0 -7 3 -13 6 -13 7 0 9 -17 15 -155 2 -60 0 -117 -5 -127 -5
-10 -5 -19 0 -22 5 -4 8 -14 6 -24 -2 -9 -4 -20 -4 -24 -2 -17 -21 -7 -21 11
0 10 -11 53 -25 96 -14 42 -28 96 -31 118 -2 23 -9 46 -15 52 -14 14 -49 -33
-101 -133 -39 -75 -104 -160 -114 -149 -3 2 12 37 32 78 123 249 155 333 138
360 -4 8 -18 -9 -38 -48 -66 -129 -95 -180 -111 -193 -14 -12 -15 -10 -6 12 5
13 25 58 44 99 37 78 53 129 40 129 -5 0 -27 -20 -51 -44 -44 -44 -77 -62 -88
-45 -3 5 -1 9 4 9 4 0 18 14 30 30 l23 30 -29 0 c-27 0 -31 -5 -42 -47 -6 -27
-19 -66 -27 -88 -10 -25 -17 -80 -18 -150 -1 -60 -7 -121 -13 -135 -7 -19 -9
-9 -5 45 4 65 3 69 -11 51 -16 -20 -16 -20 -16 0 0 10 9 56 19 102 13 61 15
82 6 82 -15 0 -40 -55 -38 -83 4 -43 -24 -5 -48 67 -14 42 -28 74 -31 71 -3
-3 8 -51 23 -108 32 -116 34 -133 17 -144 -7 -4 -13 -27 -14 -51 0 -23 -5 -47
-11 -53 -8 -8 -9 2 -6 33 5 49 -19 118 -41 118 -9 0 -12 7 -9 20 5 20 -8 26
-45 21 -10 -2 -12 4 -7 18 3 12 2 21 -3 21 -14 0 -21 -22 -12 -40 5 -8 9 -31
11 -50 2 -19 7 -41 12 -48 8 -9 5 -11 -9 -5 -16 6 -17 5 -6 -9 11 -14 11 -16
-6 -11 -11 3 -25 23 -35 51 -23 68 -25 97 -7 96 9 -1 16 6 16 16 0 18 -36 22
-49 5 -9 -12 -1 -91 20 -203 15 -83 12 -118 -6 -69 -10 25 -46 45 -59 32 -4
-3 2 -23 13 -43 l21 -37 -26 1 c-15 0 -32 4 -38 8 -24 14 -21 -14 5 -45 16
-18 21 -29 13 -24 -13 8 -13 7 0 -11 8 -10 17 -21 20 -24 3 -3 17 -21 30 -40
20 -29 21 -32 5 -20 -11 8 -26 22 -33 30 -12 13 -13 13 -6 0 8 -15 -95 68
-129 105 -19 20 -19 20 -3 -5 9 -14 21 -35 28 -47 6 -13 15 -23 20 -23 4 0 8
-9 8 -19 0 -11 5 -23 10 -26 7 -5 8 -11 1 -19 -12 -14 -3 -30 22 -39 20 -8 18
-32 -2 -32 -12 0 -41 -32 -41 -46 0 -4 10 -10 23 -14 17 -6 19 -8 6 -12 -10
-2 -37 6 -62 17 -25 12 -54 20 -64 18 -10 -2 12 -15 52 -32 39 -16 77 -36 85
-44 13 -13 12 -13 -8 -3 -18 10 -109 40 -119 41 -6 0 36 -38 50 -46 13 -8 13
-12 2 -27 -12 -17 -16 -17 -59 -3 -83 28 -193 21 -223 -16 -14 -16 -34 -100
-23 -93 4 2 10 17 13 33 3 15 15 39 26 53 18 22 26 24 103 24 72 0 91 -4 149
-31 71 -34 141 -91 170 -138 17 -29 17 -30 -2 -58 -11 -15 -27 -28 -35 -28 -8
0 -12 -5 -9 -10 3 -6 2 -10 -4 -10 -5 0 -13 -10 -16 -21 -4 -12 -20 -40 -36
-63 -15 -22 -29 -50 -31 -61 -2 -11 -11 -26 -20 -33 -10 -7 -18 -20 -18 -29 0
-9 -9 -24 -21 -34 -11 -10 -18 -22 -15 -27 3 -5 -1 -18 -9 -28 -11 -15 -14
-16 -15 -4 0 12 -2 13 -9 1 -7 -11 -13 -9 -30 8 -12 12 -19 26 -16 31 4 6 -2
10 -11 10 -10 0 -15 3 -11 6 3 3 -4 23 -17 43 -13 20 -26 47 -31 61 -7 24 -7
25 10 5 16 -20 16 -20 6 1 -6 12 -7 25 -3 30 4 5 -2 2 -13 -6 -11 -8 -21 -15
-22 -15 -2 -1 2 -16 7 -34 7 -26 5 -36 -11 -54 -31 -36 -43 -51 -67 -85 -13
-17 -30 -32 -38 -32 -8 0 -14 -5 -14 -11 0 -6 -7 -9 -15 -5 -8 3 -15 0 -15 -7
0 -9 49 -13 188 -15 l188 -3 91 133 c51 73 106 152 124 175 33 45 66 56 75 26
3 -10 14 -37 25 -61 30 -68 60 -162 54 -172 -8 -13 14 -52 24 -45 5 3 11 -1
14 -9 4 -10 0 -12 -14 -9 -13 4 -19 0 -19 -11 0 -10 9 -16 28 -17 83 -4 480 4
497 10 11 4 31 4 45 0 14 -4 100 -7 192 -8 158 -1 167 0 173 19 9 28 49 36 80
16 14 -9 25 -21 25 -26 0 -6 80 -10 209 -10 l209 0 0 -54 -1 -54 -186 -4
c-102 -2 -494 -5 -871 -6 -377 -2 -734 -5 -795 -7 -60 -2 -587 -3 -1170 -4
l-1060 -1 3 -82 c3 -58 9 -89 21 -103 14 -18 15 -19 0 -7 -14 11 -17 9 -21
-17 -2 -16 -2 -132 0 -258 l5 -228 38 -38 37 -38 154 1 c84 0 1066 1 2183 0
1331 0 2033 4 2039 10 7 7 5 10 -4 10 -8 0 -1 9 15 20 44 29 67 25 32 -5 -15
-14 -24 -25 -20 -26 60 -6 463 -13 780 -14 390 0 402 1 429 21 15 11 37 33 48
48 l21 27 0 2784 0 2784 -21 27 c-11 15 -33 37 -48 48 l-27 21 -2607 1 c-1434
0 -2692 -2 -2795 -5z m1903 -524 c90 -30 202 -97 305 -179 l86 -70 45 39 c93
78 182 137 274 181 78 37 107 46 167 50 96 6 149 -14 203 -75 64 -74 85 -155
84 -328 -1 -77 -8 -175 -16 -218 l-15 -78 31 -13 c17 -7 49 -19 71 -26 71 -23
229 -108 290 -157 68 -55 120 -125 136 -186 13 -50 0 -125 -31 -172 -11 -16
-20 -35 -20 -41 0 -5 22 -18 49 -28 97 -34 261 -157 290 -216 42 -84 66 -216
51 -285 -6 -27 -15 -138 -19 -245 -9 -205 -18 -246 -80 -380 -28 -61 -26 -83
8 -123 32 -36 105 -74 416 -218 272 -126 317 -155 409 -269 62 -75 74 -98 131
-240 23 -58 78 -190 122 -295 44 -104 82 -208 85 -230 6 -37 4 -36 -24 25 -16
36 -50 115 -75 175 -25 61 -67 160 -93 220 -27 61 -57 139 -67 174 -15 52 -31
78 -89 145 -39 45 -83 89 -97 99 -51 33 -98 57 -112 57 -8 0 -15 5 -15 12 0 6
-3 9 -6 5 -6 -5 -29 6 -121 60 -24 14 -43 22 -43 19 0 -4 -14 1 -31 10 -19 9
-34 12 -38 7 -4 -6 -17 -5 -34 2 -15 6 -25 14 -21 18 7 7 -84 67 -103 67 -7 0
-13 4 -13 9 0 5 -13 14 -29 19 -16 6 -48 24 -71 41 -51 37 -63 39 -56 9 4 -16
2 -15 -6 4 -6 15 -24 32 -39 37 -56 19 -62 84 -16 157 13 22 37 75 53 119 26
75 29 93 34 275 3 129 9 202 18 217 18 33 14 122 -8 172 -11 24 -20 59 -20 78
0 47 -14 69 -63 100 -23 14 -62 43 -87 64 -40 33 -87 59 -185 99 -24 10 -158
30 -200 31 -21 0 -189 -51 -194 -59 -3 -5 -21 -17 -38 -26 -18 -9 -33 -23 -33
-31 0 -8 -6 -18 -14 -22 -22 -12 -89 -109 -127 -183 -28 -56 -33 -75 -33 -142
-1 -64 3 -81 22 -107 24 -32 28 -46 12 -36 -6 4 -10 -14 -9 -47 0 -46 2 -50
10 -28 9 22 12 23 20 8 10 -18 1 -80 -11 -73 -4 3 -7 -15 -6 -39 1 -31 5 -43
16 -42 9 1 14 -7 13 -18 -1 -11 2 -29 7 -41 7 -18 3 -28 -20 -50 -26 -25 -35
-28 -107 -28 -133 0 -276 66 -449 205 l-83 68 -49 -44 c-171 -151 -374 -247
-495 -233 -195 24 -274 255 -211 622 7 44 10 83 6 86 -4 4 -32 15 -62 24 -147
48 -304 139 -379 221 -124 134 -105 287 51 413 71 58 205 129 311 166 43 15
79 31 81 34 2 3 -2 35 -10 71 -7 36 -17 115 -20 175 -14 229 43 383 161 436
55 25 144 24 225 -4z m1225 -1537 c-4 -26 -3 -40 4 -40 6 0 11 4 11 9 0 5 7
12 16 15 8 3 13 2 9 -3 -6 -11 15 -20 33 -13 6 2 12 13 12 23 0 24 12 24 27 0
8 -13 21 -18 42 -16 17 1 31 -1 31 -6 0 -5 5 -9 11 -9 5 0 7 5 4 10 -3 6 1 10
10 10 9 0 14 4 11 8 -3 5 1 9 9 9 8 0 12 -4 10 -8 -7 -10 20 -18 43 -12 11 2
23 -1 27 -8 6 -8 4 -10 -5 -4 -8 5 -11 4 -7 -2 4 -6 20 -13 37 -16 18 -4 30
-13 30 -22 0 -10 5 -14 13 -10 6 4 -1 -5 -18 -19 l-29 -25 21 -20 c11 -11 24
-17 27 -14 3 4 6 1 6 -5 0 -7 13 -12 29 -12 50 0 43 -15 -19 -43 -32 -15 -73
-42 -92 -61 -27 -27 -40 -33 -61 -29 -14 3 -29 13 -32 22 -6 21 -110 61 -158
61 -20 0 -53 -9 -74 -21 -72 -40 -77 -53 -20 -56 51 -2 53 -3 37 -13 -8 -5
-29 -7 -47 -4 -28 4 -34 1 -48 -27 -9 -17 -12 -28 -6 -25 6 4 11 4 11 -1 0
-13 53 -33 75 -27 11 3 38 -2 60 -10 l40 -15 -60 5 -60 4 40 -20 c39 -19 145
-25 145 -7 0 4 3 6 8 5 4 -2 21 6 38 16 21 13 30 24 27 37 -3 10 3 21 15 28
24 13 55 4 48 -14 -2 -7 4 -21 15 -31 10 -9 19 -21 19 -27 0 -5 11 -22 25 -39
32 -38 31 -51 -2 -88 -33 -37 -61 -44 -86 -22 -15 13 -20 14 -26 3 -5 -7 -21
-11 -37 -9 -21 2 -30 9 -32 26 -2 12 -6 22 -10 22 -11 -1 -68 -55 -74 -71 -4
-11 -22 -15 -69 -14 -42 1 -70 -4 -81 -13 -19 -15 -38 -9 -38 14 0 8 -5 13
-12 12 -7 -2 -13 4 -14 12 -3 37 -5 41 -13 36 -15 -9 -17 33 -10 169 5 106 10
138 28 172 19 36 21 47 12 81 -11 39 -7 72 9 72 5 0 11 8 13 18 3 10 5 4 6
-13 1 -25 3 -27 12 -12 5 9 14 17 19 17 6 0 10 -8 10 -17 0 -15 2 -16 10 -3 5
8 10 27 10 42 0 32 19 78 32 78 6 0 7 -17 3 -40z m575 -456 c0 -8 5 -12 10 -9
6 3 11 0 12 -7 0 -7 2 -20 3 -28 3 -29 -29 -70 -69 -86 -30 -12 -41 -13 -44
-4 -3 7 -26 37 -53 66 -27 30 -49 58 -49 63 0 4 26 9 57 10 31 1 59 4 62 6 2
3 19 5 38 5 23 0 33 -5 33 -16z m-160 -89 c0 -8 -6 -15 -13 -15 -8 0 -14 7
-14 15 0 8 6 15 14 15 7 0 13 -7 13 -15z m-252 -77 c18 -18 14 -35 -10 -41
-28 -8 -40 10 -25 35 14 21 19 22 35 6z m134 -68 c17 0 28 -3 24 -7 -4 -4 -31
-8 -61 -8 -45 -1 -51 1 -37 12 10 7 23 10 30 8 8 -3 28 -5 44 -5z m78 -62 c0
-8 -4 -9 -75 -14 -46 -4 -85 3 -85 14 0 5 36 8 80 8 44 0 80 -4 80 -8z m-41
-43 c40 4 52 3 41 -4 -13 -10 -13 -11 0 -12 8 0 -3 -7 -25 -16 -44 -17 -107
-24 -99 -11 3 4 -2 8 -10 8 -19 0 -28 14 -20 34 4 12 11 13 31 5 14 -5 51 -7
82 -4z m-142 -70 c0 -8 -4 -15 -9 -15 -18 0 -38 29 -32 45 6 14 8 14 24 0 9
-8 17 -22 17 -30z m-8 -30 c10 6 11 3 3 -12 -9 -15 -8 -20 3 -20 8 0 11 5 8
11 -4 6 1 5 10 -2 9 -8 24 -11 34 -8 10 2 61 6 113 8 89 3 95 2 95 -17 0 -11
-6 -19 -12 -18 -7 2 -13 -1 -13 -6 0 -6 -22 -8 -50 -5 -30 3 -59 0 -72 -8 -13
-7 -26 -11 -30 -10 -5 1 -8 -1 -8 -5 0 -13 -53 -13 -82 -1 -16 6 -29 18 -29
27 -7 78 -6 91 6 74 7 -9 17 -13 24 -8z m826 -375 c8 -13 -5 -13 -25 0 -13 8
-13 10 2 10 9 0 20 -4 23 -10z m25 -37 c0 -10 -4 -14 -8 -8 -4 6 -11 13 -16
18 -5 4 -2 7 7 7 10 0 17 -8 17 -17z m237 -175 c-3 -8 -6 -5 -6 6 -1 11 2 17
5 13 3 -3 4 -12 1 -19z m-1642 -105 c-3 -18 -10 -33 -15 -33 -4 0 -6 8 -4 18
2 9 5 42 8 72 2 30 5 57 7 60 6 12 10 -88 4 -117z m1315 -173 c50 -25 70 -55
70 -103 0 -99 -121 -151 -203 -87 -14 11 -29 20 -34 20 -4 0 -9 25 -11 56 -4
65 10 93 60 117 44 22 71 21 118 -3z m-440 -34 c13 -23 13 -29 0 -53 -35 -63
-120 -48 -120 21 0 72 84 95 120 32z m-536 -38 c14 -6 28 -19 31 -30 8 -23 -3
-58 -17 -58 -6 0 -5 -7 3 -17 12 -15 12 -16 -1 -8 -8 5 -28 10 -44 11 -54 3
-76 69 -34 98 27 19 30 19 62 4z m-384 -78 c12 -12 20 -33 20 -53 0 -18 6 -39
13 -46 10 -11 9 -13 -7 -7 -12 4 -24 -1 -37 -18 -37 -47 -99 -45 -124 4 -23
44 -19 78 14 111 36 36 90 40 121 9z m820 0 c0 -5 -5 -10 -11 -10 -5 0 -7 5
-4 10 3 6 8 10 11 10 2 0 4 -4 4 -10z m310 -54 c0 -3 -4 -8 -10 -11 -5 -3 -10
-1 -10 4 0 6 5 11 10 11 6 0 10 -2 10 -4z m-700 -16 c0 -5 -2 -10 -4 -10 -3 0
-8 5 -11 10 -3 6 -1 10 4 10 6 0 11 -4 11 -10z m158 -27 c3 -27 0 -33 -16 -33
-12 0 -22 9 -26 23 -10 39 -7 49 17 45 17 -2 23 -11 25 -35z m38 15 c-3 -13
-6 -31 -6 -40 0 -10 -4 -18 -10 -18 -5 0 -10 18 -10 40 0 30 4 40 16 40 12 0
15 -6 10 -22z m62 5 c2 -8 -6 -13 -20 -14 -17 -1 -18 -3 -5 -6 9 -2 17 -12 17
-21 1 -9 8 -1 17 18 19 40 30 20 14 -24 -9 -23 -15 -26 -38 -20 -38 9 -43 13
-43 30 0 43 46 72 58 37z m91 -37 c1 -5 -2 -6 -6 -3 -3 4 -14 -7 -24 -23 -24
-39 -44 -40 -24 -1 8 17 12 36 9 44 -8 21 29 27 38 7 4 -8 7 -19 7 -24z m311
34 c0 -5 -5 -10 -11 -10 -5 0 -7 5 -4 10 3 6 8 10 11 10 2 0 4 -4 4 -10z
m-1710 -32 c0 -14 -18 -17 -28 -5 -8 10 -6 13 9 13 10 0 19 -4 19 -8z m695 -8
c3 -6 -1 -7 -9 -4 -18 7 -21 14 -7 14 6 0 13 -4 16 -10z m737 -35 c-17 -38
-15 -41 12 -16 13 12 27 18 30 13 3 -5 -4 -18 -15 -28 -11 -10 -17 -24 -15
-31 9 -23 -12 -14 -38 18 -14 17 -26 28 -26 24 0 -3 -5 -3 -12 1 -8 5 0 17 22
36 40 32 60 24 42 -17z m-657 -3 c-3 -3 -11 0 -18 7 -9 10 -8 11 6 5 10 -3 15
-9 12 -12z m815 4 c0 -3 -4 -8 -10 -11 -5 -3 -10 -1 -10 4 0 6 5 11 10 11 6 0
10 -2 10 -4z m-775 -16 c3 -6 -1 -7 -9 -4 -18 7 -21 14 -7 14 6 0 13 -4 16
-10z m740 -10 c-3 -5 -11 -10 -16 -10 -6 0 -7 5 -4 10 3 6 11 10 16 10 6 0 7
-4 4 -10z m-700 -10 c3 -6 -1 -7 -9 -4 -18 7 -21 14 -7 14 6 0 13 -4 16 -10z
m466 -23 c-10 -9 -11 -8 -5 6 3 10 9 15 12 12 3 -3 0 -11 -7 -18z m196 17 c-3
-4 0 -16 8 -28 18 -25 19 -39 3 -33 -7 2 -25 -2 -40 -10 -36 -17 -36 -3 -1 27
19 16 23 25 14 28 -11 4 -11 6 0 13 16 10 25 12 16 3z m-622 -14 c3 -6 -1 -7
-9 -4 -18 7 -21 14 -7 14 6 0 13 -4 16 -10z m240 0 c3 -5 1 -10 -4 -10 -6 0
-11 5 -11 10 0 6 2 10 4 10 3 0 8 -4 11 -10z m-200 -20 c3 -6 -1 -7 -9 -4 -18
7 -21 14 -7 14 6 0 13 -4 16 -10z m366 -23 c-10 -9 -11 -8 -5 6 3 10 9 15 12
12 3 -3 0 -11 -7 -18z m-326 3 c3 -6 -1 -7 -9 -4 -18 7 -21 14 -7 14 6 0 13
-4 16 -10z m40 -20 c3 -5 2 -10 -4 -10 -5 0 -13 5 -16 10 -3 6 -2 10 4 10 5 0
13 -4 16 -10z m385 -4 c0 -3 -4 -8 -10 -11 -5 -3 -10 -1 -10 4 0 6 5 11 10 11
6 0 10 -2 10 -4z m154 -13 c4 -9 2 -21 -4 -27 -7 -7 -10 -5 -10 5 0 12 -2 12
-10 -1 -9 -13 -11 -13 -20 0 -8 13 -10 12 -10 -2 0 -23 -16 -23 -24 -2 -8 20
-7 20 24 33 36 14 47 13 54 -6z m-499 -11 c-3 -3 -11 0 -18 7 -9 10 -8 11 6 5
10 -3 15 -9 12 -12z m240 -2 c3 -6 -1 -7 -9 -4 -18 7 -21 14 -7 14 6 0 13 -4
16 -10z m-200 -10 c3 -5 2 -10 -4 -10 -5 0 -13 5 -16 10 -3 6 -2 10 4 10 5 0
13 -4 16 -10z m-250 -25 c14 -13 25 -31 25 -40 0 -8 6 -15 13 -15 8 0 9 -3 1
-8 -6 -4 -19 -21 -28 -39 -38 -74 -131 -72 -162 3 -12 29 -12 39 0 68 17 41
39 55 89 56 27 0 45 -7 62 -25z m491 -16 c13 -25 14 -39 5 -72 -5 -22 -8 -45
-5 -49 3 -5 2 -7 -3 -6 -4 1 -19 -5 -33 -14 -14 -9 -36 -19 -50 -22 l-25 -6
25 12 c28 14 70 58 70 73 0 6 -5 3 -11 -5 -9 -12 -10 -12 -5 3 3 10 6 23 6 28
0 6 5 7 10 4 6 -3 10 1 10 9 0 9 -5 16 -11 16 -5 0 -7 5 -4 10 3 6 0 10 -7 11
-10 0 -11 2 0 6 10 4 10 8 1 19 -8 10 -8 14 0 14 6 0 18 -14 27 -31z m-90 8
c8 3 14 -1 14 -11 0 -9 4 -16 8 -16 5 0 9 -13 9 -30 0 -18 -6 -30 -14 -30 -7
0 -13 -7 -13 -16 0 -14 -3 -14 -15 -4 -10 9 -15 9 -15 1 0 -6 -4 -11 -10 -11
-5 0 -10 7 -10 15 0 8 -7 15 -16 15 -8 0 -12 5 -9 10 4 6 1 17 -5 25 -9 11 -9
15 -1 15 6 0 11 5 11 11 0 17 34 39 44 29 5 -5 15 -6 22 -3z m319 -11 c0 -11
-6 -21 -12 -23 -7 -3 -13 3 -13 12 0 9 -6 15 -12 12 -7 -2 -12 -10 -10 -16 1
-6 -5 -11 -13 -11 -15 0 -21 31 -8 44 4 4 21 6 38 4 22 -2 30 -8 30 -22z m284
-1 c66 -34 50 -126 -26 -149 -12 -4 -38 0 -57 8 -27 11 -38 23 -42 46 -4 16
-11 30 -16 30 -5 0 9 18 31 40 42 43 66 48 110 25z m-708 -112 c13 -12 17 -23
11 -23 -19 0 -44 47 -48 92 l-3 43 9 -44 c5 -24 19 -55 31 -68z m-121 77 c0
-5 -4 -10 -10 -10 -5 0 -10 5 -10 10 0 6 5 10 10 10 6 0 10 -4 10 -10z m50 0
c0 -5 -4 -10 -10 -10 -5 0 -10 5 -10 10 0 6 5 10 10 10 6 0 10 -4 10 -10z
m-93 -6 c-3 -3 -12 -4 -19 -1 -8 3 -5 6 6 6 11 1 17 -2 13 -5z m410 0 c-3 -3
-12 -4 -19 -1 -8 3 -5 6 6 6 11 1 17 -2 13 -5z m50 0 c-3 -3 -12 -4 -19 -1 -8
3 -5 6 6 6 11 1 17 -2 13 -5z m133 -4 c8 -5 10 -10 4 -10 -7 0 -14 -8 -16 -18
-4 -15 -13 -17 -42 -14 -38 4 -48 17 -18 25 10 3 6 5 -10 6 -16 0 -28 4 -28 9
0 11 93 13 110 2z m55 -10 c-3 -5 -10 -10 -16 -10 -5 0 -9 5 -9 10 0 6 7 10
16 10 8 0 12 -4 9 -10z m1285 -15 c14 -19 14 -19 -2 -6 -10 7 -18 18 -18 24 0
6 1 8 3 6 1 -2 9 -13 17 -24z m-1555 -25 c-3 -5 -1 -10 6 -10 7 0 10 -3 6 -6
-9 -9 -28 6 -22 17 4 5 8 9 11 9 3 0 2 -4 -1 -10z m-265 -10 c-20 -13 -33 -13
-25 0 3 6 14 10 23 10 15 0 15 -2 2 -10z m438 4 c26 -7 30 -34 5 -35 -11 0
-13 -3 -5 -6 23 -9 12 -25 -14 -20 l-25 4 21 -22 20 -22 -23 -10 c-15 -7 -29
-8 -38 -2 -25 16 -32 9 -9 -9 19 -15 21 -22 12 -38 -11 -18 -13 -17 -16 6 0 6
-4 9 -7 8 -3 -2 -13 3 -22 11 -22 18 -22 3 0 -21 15 -17 15 -20 1 -35 -19 -19
-42 -12 -57 16 -9 16 -7 24 10 40 12 11 18 24 14 30 -3 7 2 11 13 11 21 0 36
25 26 41 -3 6 6 7 23 4 20 -5 24 -4 14 3 -12 8 -12 14 -3 25 7 7 9 17 5 20 -8
9 24 9 55 1z m-488 -24 c0 -5 -5 -10 -11 -10 -5 0 -7 5 -4 10 3 6 8 10 11 10
2 0 4 -4 4 -10z m81 -7 c13 -16 12 -17 -3 -4 -17 13 -22 21 -14 21 2 0 10 -8
17 -17z m284 7 c3 -5 1 -10 -4 -10 -6 0 -11 5 -11 10 0 6 2 10 4 10 3 0 8 -4
11 -10z m-405 -20 c0 -5 -5 -10 -11 -10 -5 0 -7 5 -4 10 3 6 8 10 11 10 2 0 4
-4 4 -10z m345 1 c3 -6 -3 -9 -14 -8 -11 0 -17 5 -15 9 7 11 22 10 29 -1z
m-415 -45 c0 -2 -7 -7 -16 -10 -8 -3 -12 -2 -9 4 6 10 25 14 25 6z m310 -17
c0 -5 -4 -9 -10 -9 -5 0 -10 7 -10 16 0 8 5 12 10 9 6 -3 10 -10 10 -16z
m-130 1 c0 -5 -5 -10 -11 -10 -5 0 -7 5 -4 10 3 6 8 10 11 10 2 0 4 -4 4 -10z
m-230 -4 c0 -3 -4 -8 -10 -11 -5 -3 -10 -1 -10 4 0 6 5 11 10 11 6 0 10 -2 10
-4z m1972 -49 c-7 -8 -13 -69 -15 -143 l-3 -129 -2 137 c-2 131 0 142 27 147
2 1 -1 -5 -7 -12z m-1212 -7 c0 -5 -2 -10 -4 -10 -3 0 -8 5 -11 10 -3 6 -1 10
4 10 6 0 11 -4 11 -10z m-588 -22 c-7 -7 -12 -8 -12 -2 0 14 12 26 19 19 2 -3
-1 -11 -7 -17z m312 3 c23 -25 17 -55 -12 -59 -23 -4 -31 13 -9 21 6 2 4 3 -5
2 -21 -3 -32 23 -17 41 15 19 23 18 43 -5z m1304 -1 c10 -16 10 -20 0 -21 -10
0 -10 -2 0 -6 10 -4 10 -8 0 -21 -11 -13 -11 -14 2 -7 12 7 11 4 -2 -17 -16
-25 -16 -27 0 -33 15 -6 15 -8 -6 -25 -20 -17 -21 -20 -6 -28 9 -5 17 -21 17
-35 1 -15 5 -27 10 -27 4 0 7 -8 7 -17 0 -17 -59 -63 -80 -63 -6 0 -9 -4 -6
-9 6 -9 -57 -6 -74 4 -6 3 -8 10 -6 14 3 4 -1 8 -9 8 -8 0 -13 -2 -10 -5 2 -2
-1 -10 -8 -16 -16 -16 -50 -29 -42 -16 3 6 2 10 -4 10 -5 0 -11 -5 -13 -11 -4
-12 -68 109 -68 129 0 8 -5 10 -12 6 -7 -5 -9 -2 -6 8 4 8 2 21 -2 28 -24 39
54 90 225 146 86 28 78 28 93 4z m-1431 -12 c-3 -8 -6 -5 -6 6 -1 11 2 17 5
13 3 -3 4 -12 1 -19z m372 -12 c42 -38 13 -116 -44 -116 -37 0 -75 21 -80 44
-3 12 -4 37 -2 56 l2 35 51 0 c37 0 58 -6 73 -19z m-301 -18 c17 -28 8 -54 -8
-28 -7 10 -10 11 -10 3 0 -7 -4 -13 -10 -13 -5 0 -10 16 -10 36 0 41 14 42 38
2z m-689 10 c10 -6 17 -18 15 -27 -13 -71 -14 -72 -42 -69 -33 4 -49 41 -33
81 11 29 30 34 60 15z m411 2 c0 -5 -5 -10 -11 -10 -5 0 -7 5 -4 10 3 6 8 10
11 10 2 0 4 -4 4 -10z m220 -10 c0 -5 -2 -10 -4 -10 -3 0 -8 5 -11 10 -3 6 -1
10 4 10 6 0 11 -4 11 -10z m708 -25 c19 -23 20 -71 2 -60 -4 3 -18 -4 -32 -14
-14 -12 -38 -19 -60 -18 -35 1 -37 3 -40 36 -2 30 2 40 26 59 40 30 79 29 104
-3z m-956 -7 c-7 -7 -12 -8 -12 -2 0 14 12 26 19 19 2 -3 -1 -11 -7 -17z m245
-20 c-3 -8 -6 -5 -6 6 -1 11 2 17 5 13 3 -3 4 -12 1 -19z m0 -40 c-3 -8 -6 -5
-6 6 -1 11 2 17 5 13 3 -3 4 -12 1 -19z m-957 -39 c0 -6 -4 -7 -10 -4 -5 3
-10 11 -10 16 0 6 5 7 10 4 6 -3 10 -11 10 -16z m970 1 c0 -5 -4 -10 -10 -10
-5 0 -10 5 -10 10 0 6 5 10 10 10 6 0 10 -4 10 -10z m1055 -126 c18 -71 37
-138 41 -149 4 -11 -12 4 -36 34 l-44 54 -1 98 c-1 54 0 97 2 95 2 -2 19 -61
38 -132z m-1405 92 c0 -3 -4 -8 -10 -11 -5 -3 -10 -1 -10 4 0 6 5 11 10 11 6
0 10 -2 10 -4z m1937 -93 c-3 -10 -5 -2 -5 17 0 19 2 27 5 18 2 -10 2 -26 0
-35z m-191 -2 c-4 -5 12 -5 35 0 41 10 75 -2 63 -22 -3 -5 1 -6 9 -3 8 3 17
-2 21 -11 5 -13 0 -15 -27 -11 -35 6 -124 -15 -94 -21 19 -5 24 -43 4 -43 -7
0 -18 9 -25 20 -13 21 -32 27 -32 11 0 -5 8 -12 18 -14 16 -4 16 -5 0 -6 -10
0 -22 8 -28 19 -10 19 -12 19 -27 5 -8 -9 -22 -14 -30 -11 -8 3 -20 6 -26 6
-6 0 4 11 23 25 19 14 44 25 57 25 12 0 27 9 33 20 6 11 15 20 21 20 6 0 8 -4
5 -9z m-756 -9 c0 -5 -3 -24 -6 -41 -5 -24 -12 -31 -29 -31 -13 0 -25 -7 -29
-15 -8 -23 -25 -18 -36 11 -6 14 -17 32 -25 40 -31 31 -18 41 55 43 39 1 70
-2 70 -7z m957 -59 c-3 -10 -5 -2 -5 17 0 19 2 27 5 18 2 -10 2 -26 0 -35z
m10 -55 c-3 -7 -5 -2 -5 12 0 14 2 19 5 13 2 -7 2 -19 0 -25z m-270 -13 c0 -8
-4 -12 -9 -9 -4 3 -8 9 -8 15 0 5 4 9 8 9 5 0 9 -7 9 -15z m-22 -35 c3 -6 -1
-7 -9 -4 -18 7 -21 14 -7 14 6 0 13 -4 16 -10z m23 -10 c-14 -22 -26 -25 -48
-9 -12 9 -10 10 8 6 15 -4 25 0 29 9 3 8 9 14 14 14 5 0 4 -9 -3 -20z m32 5
c-10 -12 -10 -19 -2 -27 13 -13 16 -48 5 -48 -5 0 -15 5 -23 10 -13 8 -12 10
3 10 15 0 16 3 7 21 -9 15 -8 24 1 35 6 8 14 14 16 14 3 0 0 -7 -7 -15z m70 5
c0 -5 -4 -10 -10 -10 -5 0 -10 5 -10 10 0 6 5 10 10 10 6 0 10 -4 10 -10z
m177 -67 c-2 -16 -4 -3 -4 27 0 30 2 43 4 28 2 -16 2 -40 0 -55z m-364 60 c-7
-2 -19 -2 -25 0 -7 3 -2 5 12 5 14 0 19 -2 13 -5z m-148 -71 l-14 -27 0 25
c-1 14 2 36 6 49 l6 25 9 -23 c5 -15 3 -32 -7 -49z m329 46 c-5 -8 0 -9 15 -5
18 4 21 2 16 -14 -4 -11 -2 -19 6 -19 9 0 9 -3 -1 -15 -6 -8 -9 -19 -5 -25 4
-6 1 -9 -7 -8 -7 2 -12 -4 -10 -14 4 -24 -14 -31 -32 -12 -18 17 -36 11 -37
-14 0 -11 -3 -12 -6 -4 -2 6 -9 12 -14 12 -6 0 -8 -4 -5 -9 3 -5 -1 -11 -9
-15 -17 -6 -21 19 -4 29 6 4 8 13 5 20 -7 19 23 28 42 13 13 -11 15 -10 9 5
-4 11 -2 17 8 17 7 0 16 4 19 9 3 5 -2 8 -10 7 -26 -2 -26 34 -1 44 29 12 29
12 21 -2z m-190 -30 c-6 -10 -4 -10 7 0 20 18 39 15 39 -8 0 -11 7 -20 15 -20
8 0 15 -7 15 -15 0 -17 -16 -20 -25 -5 -3 5 -15 15 -26 21 -18 9 -19 9 -7 -10
7 -12 16 -21 21 -21 4 0 5 -5 1 -11 -3 -6 -1 -15 5 -19 18 -10 21 -58 5 -71
-8 -6 -14 -18 -14 -27 0 -11 -5 -9 -20 8 -11 13 -20 18 -20 12 0 -7 -9 -21
-20 -32 -11 -11 -20 -15 -20 -10 0 6 -10 2 -22 -10 -12 -11 -26 -20 -30 -20
-5 0 -4 -9 2 -19 18 -34 12 -69 -12 -77 -39 -13 -52 -16 -93 -19 -22 -2 -42
-4 -45 -5 -3 -1 -22 -1 -42 0 -34 1 -39 -2 -58 -40 -23 -44 -45 -59 -63 -41
-17 17 -37 13 -37 -9 0 -11 -6 -20 -14 -20 -9 0 -13 -10 -12 -31 0 -20 -5 -35
-16 -42 -24 -16 -30 -5 -33 50 -1 38 -5 47 -18 45 -10 -2 -17 4 -17 12 0 11 7
15 23 12 12 -2 35 6 52 19 17 12 45 30 64 39 32 17 80 63 81 79 0 17 -28 5
-55 -23 -30 -31 -78 -50 -131 -50 -23 0 -34 6 -42 25 -17 37 -15 49 11 60 12
6 33 27 46 48 20 31 36 41 86 56 33 11 88 22 120 26 55 7 111 31 143 62 7 7
26 11 42 9 17 -2 30 0 30 4 0 4 9 10 20 13 11 3 19 10 18 15 -2 5 8 19 22 30
29 25 34 27 24 10z m-4494 -13 c0 -8 -4 -15 -9 -15 -5 0 -14 7 -21 15 -10 13
-9 15 9 15 12 0 21 -6 21 -15z m3358 -17 c-3 -7 -13 -13 -23 -13 -10 0 -20 6
-22 13 -3 7 5 12 22 12 17 0 25 -5 23 -12z m-3288 -13 c0 -16 -35 -21 -44 -6
-8 12 4 21 26 21 10 0 18 -7 18 -15z m410 -19 c0 -3 -4 -8 -10 -11 -5 -3 -10
-1 -10 4 0 6 5 11 10 11 6 0 10 -2 10 -4z m55 -6 c3 -6 -1 -7 -9 -4 -18 7 -21
14 -7 14 6 0 13 -4 16 -10z m60 0 c3 -5 1 -10 -4 -10 -6 0 -11 5 -11 10 0 6 2
10 4 10 3 0 8 -4 11 -10z m125 -2 c0 -4 -4 -10 -10 -13 -5 -3 -10 -2 -10 4 0
6 -7 8 -15 5 -8 -4 -15 -1 -15 5 0 6 11 10 25 9 14 -1 25 -6 25 -10z m480 3
c0 -4 -15 -7 -32 -6 -18 0 -39 -3 -45 -8 -9 -6 -13 -5 -13 2 0 7 -9 9 -24 5
-13 -3 -99 -6 -190 -7 -127 -2 -166 1 -166 10 0 10 53 13 235 12 129 -1 235
-4 235 -8z m70 -2 c0 -14 -18 -20 -25 -8 -4 5 -14 8 -22 5 -8 -3 -12 -2 -9 3
7 11 56 11 56 0z m50 7 c0 -11 -19 -15 -25 -6 -3 5 1 10 9 10 9 0 16 -2 16 -4z
m-1549 -53 c13 -16 12 -17 -3 -4 -10 7 -18 15 -18 17 0 8 8 3 21 -13z m4134
-139 c4 -23 3 -25 -4 -9 -7 14 -10 16 -11 5 -1 -9 -5 -5 -11 9 -5 14 -7 31 -5
38 3 7 1 13 -4 13 -5 0 -6 8 -3 17 6 14 9 12 19 -13 7 -17 15 -44 19 -60z
m-3903 -68 c3 -11 6 -68 5 -126 l-1 -105 -5 117 c-6 117 -6 117 -41 154 l-35
38 35 -28 c19 -16 38 -38 42 -50z m4456 -125 c-3 -11 -13 -15 -37 -13 -20 1
-30 -2 -26 -8 3 -5 -1 -10 -9 -10 -9 0 -16 -4 -16 -8 0 -11 -56 -37 -100 -47
-19 -4 -44 -14 -56 -21 -19 -13 -21 -12 -19 7 1 13 15 28 36 39 76 40 147 70
172 72 15 1 27 6 27 10 0 4 7 5 15 1 9 -3 14 -13 13 -22z m-953 -11 c3 -5 1
-10 -4 -10 -6 0 -11 5 -11 10 0 6 2 10 4 10 3 0 8 -4 11 -10z m35 0 c0 -5 -4
-10 -10 -10 -5 0 -10 5 -10 10 0 6 5 10 10 10 6 0 10 -4 10 -10z m965 -2 c-11
-6 -23 -16 -27 -22 -5 -7 -8 -5 -8 6 0 9 8 19 18 21 31 8 37 7 17 -5z m-315
-18 c-8 -5 -22 -9 -30 -9 -10 0 -8 3 5 9 27 12 43 12 25 0z m271 -47 c-12 -20
-14 -14 -5 12 4 9 9 14 11 11 3 -2 0 -13 -6 -23z m-341 13 c0 -2 -9 -6 -20 -9
-11 -3 -20 -1 -20 4 0 5 9 9 20 9 11 0 20 -2 20 -4z m-391 -76 c-6 -5 -18 -6
-26 -3 -19 8 -16 11 13 11 17 0 22 -3 13 -8z"/>
<path d="M2052 5179 c-48 -10 -70 -35 -92 -107 -15 -47 -20 -92 -20 -171 1
-91 20 -255 32 -267 3 -2 49 5 104 16 54 10 127 22 162 26 58 6 65 9 94 48 18
22 66 81 107 130 l75 89 -49 45 c-142 128 -320 211 -413 191z"/>
<path d="M3056 5179 c-91 -22 -270 -133 -345 -212 l-23 -26 65 -75 c36 -41 84
-100 107 -129 40 -53 42 -55 103 -61 34 -4 107 -16 161 -26 55 -11 101 -18
103 -16 2 2 11 41 19 87 23 118 16 316 -13 379 -11 25 -29 53 -39 62 -25 22
-88 30 -138 17z"/>
<path d="M2528 4783 l-66 -78 69 -3 c38 -2 100 -2 139 0 l70 3 -67 75 c-36 41
-69 76 -72 78 -3 1 -36 -33 -73 -75z"/>
<path d="M2383 4573 c-25 -5 -131 -169 -207 -321 l-45 -89 68 -124 c37 -68 90
-158 117 -199 l49 -75 85 -8 c47 -4 152 -5 234 -2 124 5 152 9 163 23 28 36
143 232 182 311 l42 82 -54 102 c-30 56 -82 145 -116 198 -51 81 -67 98 -92
103 -34 7 -390 6 -426 -1z m278 -177 c51 -9 113 -56 145 -112 23 -39 28 -60
28 -113 1 -212 -244 -318 -397 -173 -136 129 -69 366 114 401 24 5 51 7 59 6
8 -2 31 -6 51 -9z"/>
<path d="M2090 4534 c-36 -8 -70 -16 -77 -19 -9 -3 -4 -29 18 -92 16 -48 33
-91 38 -96 5 -5 26 24 49 65 23 40 53 92 67 116 l26 42 -28 -1 c-15 -1 -57 -7
-93 -15z"/>
<path d="M3023 4498 c18 -29 49 -81 67 -115 19 -35 37 -63 40 -63 3 0 20 43
37 96 22 67 28 96 20 99 -32 12 -145 35 -170 35 l-28 0 34 -52z"/>
<path d="M1795 4451 c-190 -74 -336 -185 -350 -264 -11 -55 31 -118 122 -183
78 -56 249 -136 295 -138 29 -1 31 2 73 119 24 66 49 134 56 151 11 27 8 40
-28 135 -23 57 -48 128 -58 157 -9 28 -22 52 -28 51 -7 0 -44 -13 -82 -28z"/>
<path d="M3295 4428 c-10 -29 -35 -99 -57 -156 l-40 -102 57 -145 57 -145 45
40 c45 40 166 87 268 105 72 13 135 82 135 147 0 63 -97 157 -231 224 -69 35
-191 84 -208 84 -5 0 -17 -24 -26 -52z"/>
<path d="M2063 4004 c-19 -49 -61 -179 -58 -182 5 -5 200 -41 204 -37 2 3 -1
11 -8 18 -6 8 -38 61 -71 117 -48 84 -61 100 -67 84z"/>
<path d="M3059 3901 c-36 -64 -65 -117 -64 -119 3 -3 197 36 202 41 4 5 -56
180 -65 188 -4 4 -37 -46 -73 -110z"/>
<path d="M1971 3686 c-18 -47 -33 -210 -28 -298 9 -160 54 -238 137 -238 94 0
264 86 392 200 l48 41 -73 82 c-40 45 -88 103 -106 129 -25 35 -42 49 -65 53
-17 2 -65 9 -106 15 -41 6 -101 17 -133 24 -57 13 -59 13 -66 -8z"/>
<path d="M3070 3678 c-63 -10 -128 -21 -145 -23 -20 -4 -38 -17 -54 -40 -13
-19 -59 -76 -102 -127 -44 -51 -79 -95 -79 -98 0 -10 148 -123 213 -163 63
-38 170 -77 213 -77 12 0 35 5 49 12 l25 11 -5 111 c-3 61 -11 145 -16 187
-11 73 -2 138 26 212 4 9 3 16 -1 16 -5 -1 -61 -10 -124 -21z"/>
<path d="M2489 3603 c17 -21 49 -58 71 -83 l40 -45 49 52 c27 29 59 66 71 83
l21 30 -141 0 -142 0 31 -37z"/>
<path d="M3495 3590 c-3 -5 -1 -10 4 -10 6 0 11 5 11 10 0 6 -2 10 -4 10 -3 0
-8 -4 -11 -10z"/>
<path d="M3604 1446 c-7 -19 3 -36 22 -36 10 0 14 8 12 22 -4 26 -26 36 -34
14z m26 -17 c0 -5 -4 -9 -10 -9 -5 0 -10 7 -10 16 0 8 5 12 10 9 6 -3 10 -10
10 -16z"/>
<path d="M3867 1289 c7 -7 15 -10 18 -7 3 3 -2 9 -12 12 -14 6 -15 5 -6 -5z"/>
<path d="M3790 1211 c0 -5 5 -13 10 -16 6 -3 10 -2 10 4 0 5 -4 13 -10 16 -5
3 -10 2 -10 -4z"/>
<path d="M4288 1043 c7 -3 16 -2 19 1 4 3 -2 6 -13 5 -11 0 -14 -3 -6 -6z"/>
<path d="M4886 562 c-2 -4 4 -9 15 -9 10 -1 19 2 19 8 0 11 -27 12 -34 1z"/>
<path d="M3276 2694 c-9 -23 -4 -24 17 -2 13 14 14 18 3 18 -8 0 -17 -7 -20
-16z"/>
<path d="M2758 2473 c-10 -2 -18 -9 -18 -15 0 -5 7 -7 16 -4 9 3 20 6 25 6 5
0 9 5 9 10 0 10 -3 11 -32 3z"/>
<path d="M3091 2464 c0 -11 3 -14 6 -6 3 7 2 16 -1 19 -3 4 -6 -2 -5 -13z"/>
<path d="M3073 2418 c-21 -43 -23 -57 -7 -51 15 5 29 44 22 64 -2 6 -9 0 -15
-13z"/>
<path d="M2753 2392 c-8 -5 -9 -13 -3 -22 11 -17 23 -8 18 14 -2 9 -8 12 -15
8z"/>
<path d="M2501 1191 c-29 -29 -97 -133 -103 -158 -3 -12 1 -31 9 -42 12 -18
25 -21 94 -21 72 0 82 3 104 25 15 14 25 36 25 53 0 36 -28 122 -48 145 -20
22 -57 22 -81 -2z"/>
<path d="M1931 1004 c0 -11 3 -14 6 -6 3 7 2 16 -1 19 -3 4 -6 -2 -5 -13z"/>
</g>
</svg>
